<mxfile host="app.diagrams.net" modified="2024-01-24T01:26:39.634Z" agent="Mozilla/5.0 (X11; CrOS x86_64 14541.0.0) AppleWebKit/537.36 (KHTML, like Gecko) Chrome/120.0.0.0 Safari/537.36" version="23.0.0" etag="k2zlguWcPXsMKCtIEh7Y" type="github">
  <diagram name="Page-1" id="IhNuHUBX7uaVQXhlC20S">
    <mxGraphModel>
      <root>
        <mxCell id="0" />
        <mxCell id="1" parent="0" />
      </root>
    </mxGraphModel>
  </diagram>
</mxfile>
